inDegrees=no
num_controls=7
num_derivatives=13
num_iterations=126
num_multipliers=7
num_parameters=0
num_slacks=7
num_states=26
objective=5.667311
objective_accelerations=0.817876
objective_balance=0.057254
objective_effort=0.352057
objective_height=4.369259
objective_ligament=0.070866
solver_duration=1407.193833
status=Solve_Succeeded
success=true
DataType=double
version=3
OpenSimVersion=4.4-2022-07-23-0e9fedc
endheader
time	/jointset/ground_pelvis/pelvis_tilt/value	/jointset/ground_pelvis/pelvis_tx/value	/jointset/ground_pelvis/pelvis_ty/value	/jointset/hip_l/hip_flexion_l/value	/jointset/hip_l/hip_adduction_l/value	/jointset/hip_l/hip_rotation_l/value	/jointset/back/lumbar_extension/value	/jointset/patellofemoral_l/patellar_flexion_l/value	/jointset/knee_l/knee_flexion_l/value	/jointset/knee_l/knee_adduction_l/value	/jointset/knee_l/knee_rotation_l/value	/jointset/ankle_l/ankle_angle_l/value	/jointset/subtalar_l/subtalar_angle_l/value	/jointset/ground_pelvis/pelvis_tilt/speed	/jointset/ground_pelvis/pelvis_tx/speed	/jointset/ground_pelvis/pelvis_ty/speed	/jointset/hip_l/hip_flexion_l/speed	/jointset/hip_l/hip_adduction_l/speed	/jointset/hip_l/hip_rotation_l/speed	/jointset/back/lumbar_extension/speed	/jointset/patellofemoral_l/patellar_flexion_l/speed	/jointset/knee_l/knee_flexion_l/speed	/jointset/knee_l/knee_adduction_l/speed	/jointset/knee_l/knee_rotation_l/speed	/jointset/ankle_l/ankle_angle_l/speed	/jointset/subtalar_l/subtalar_angle_l/speed	/forceset/tau_hip_flexion_l	/forceset/tau_hip_adduction_l	/forceset/tau_hip_rotation_l	/forceset/tau_knee_flexion_l	/forceset/tau_ankle_angle_l	/forceset/tau_subtalar_angle_l	/forceset/tau_lumbar_extension	lambda_cid13_p0	lambda_cid13_p1	lambda_cid13_p2	lambda_cid13_p3	lambda_cid13_p4	lambda_cid13_p5	lambda_cid14_p0	/jointset/ground_pelvis/pelvis_tilt/accel	/jointset/ground_pelvis/pelvis_tx/accel	/jointset/ground_pelvis/pelvis_ty/accel	/jointset/hip_l/hip_flexion_l/accel	/jointset/hip_l/hip_adduction_l/accel	/jointset/hip_l/hip_rotation_l/accel	/jointset/back/lumbar_extension/accel	/jointset/patellofemoral_l/patellar_flexion_l/accel	/jointset/knee_l/knee_flexion_l/accel	/jointset/knee_l/knee_adduction_l/accel	/jointset/knee_l/knee_rotation_l/accel	/jointset/ankle_l/ankle_angle_l/accel	/jointset/subtalar_l/subtalar_angle_l/accel	gamma_cid13_p0	gamma_cid13_p1	gamma_cid13_p2	gamma_cid13_p3	gamma_cid13_p4	gamma_cid13_p5	gamma_cid14_p0
1.5	-0.4802369442788647	-0.08081219269596758	0.7415185294680944	1.281002548522057	-0.4321945776591805	-0.2174720739674243	-0.2338906519951691	0.7619328990939929	0.7619328990939787	-0.1458994312766655	-0.1460311537361966	0.01634797844112661	-0.07511558150260397	0.9700354298333691	0.4000609718021027	0.6073984206161448	-2.907120446113825	0.2069845758104517	-0.6900356629285433	0.2883527055154708	-1.898002560385947	-1.898002560385721	-0.0928985154128233	0.1389025691627349	-0.100999311633956	0.183387436436455	-0.2264860002626554	0.02324374191243184	-0.004226050135953935	-0.1765957682330548	0.08982801233616547	0.05218021546858626	0.2028043099228055	-3.846229872421681	-24.06599240733373	5.873946871096832	-11.86008237154712	-518.2882752483617	-57.09985372452429	-26.9918381918209	0.9740120202406194	0.9459939574184999	-0.5284155018240445	-1.685137342490646	0.6935526735175945	-0.1213095028367535	1.695644899387126	-1.236337399449366	-1.236337399449328	0.1396295778837382	0.2794049700518841	-0.3204104022673202	0.5871172517997565	2.439275700608498e-07	9.819222235189446e-07	-9.898698870652681e-07	1.923047302604666e-07	5.150017350412902e-07	-5.695787672657061e-07	3.396930479984378e-07
1.51	-0.4704880164368563	-0.0767646585923349	0.7475648852389276	1.251848955239208	-0.4300917260161675	-0.2243780508874408	-0.2309239260262692	0.7428933910062994	0.7428933910063261	-0.1468241985565272	-0.1446299130624383	0.01532188324769311	-0.07325422801487479	0.9796019160436205	0.4093941864485263	0.6017415876861251	-2.923193563671148	0.2135612567113036	-0.6910651193334233	0.3049740968524159	-1.90963445907721	-1.909634459077204	-0.09205415316452385	0.1413328208397043	-0.1041853304225761	0.1888715699136423	-0.2186819328335056	0.0229153018948035	-0.003896821230021735	-0.1741846807970833	0.08766891512043358	0.05073650693943446	0.1966842773096159	-4.246765134001164	-23.40859600713122	5.814528823217294	-11.33585891987024	-513.3656884068339	-57.21418979599961	-27.83728379522265	0.9257484216627033	0.9192758766337776	-0.6038769958729913	-1.50767824277761	0.6359754710180459	-0.07927054854249842	1.642627538950276	-1.08699487913935	-1.086994879172453	0.05713167838966433	0.2226640513672401	-0.3125253263746159	0.527248851912693	2.4582535657444e-07	1.043795892293622e-06	-9.720291763248608e-07	1.974813111986631e-07	5.449391141190964e-07	-5.355278330026054e-07	3.414985881342249e-07
1.52	-0.460647867432683	-0.07262533421056244	0.753550760719004	1.222546774924722	-0.4279238576296047	-0.2312914237393674	-0.2277915378863725	0.7237454881766945	0.7237454881766927	-0.1477404637880683	-0.1432048041147851	0.01426496232453273	-0.07133839570112678	0.9882796622636607	0.4184190274300574	0.5953023624648562	-2.93683785244547	0.219987924518113	-0.6915148493074439	0.3214851397134392	-1.919681508775455	-1.919681508775669	-0.09119810571275035	0.1436762239105698	-0.1071644575798066	0.1942832016402092	-0.2108778654042439	0.02258686187717195	-0.003567592325050036	-0.1717735933610187	0.08550981790469994	0.04929279841029003	0.1905642446965473	-4.65274455744563	-22.75307756199889	5.758644736169007	-10.82448048438198	-508.519172083947	-57.36688316340461	-28.68474920376929	0.7962640221983497	0.8843192244400609	-0.684893960073837	-1.199371585890567	0.6635500547091854	-0.005364216664915434	1.673575204202723	-0.9193676008457803	-0.9193676008457812	0.1419666185785556	0.2620352488311277	-0.2790320759893631	0.572616901675718	2.412420934004575e-07	1.11895009470196e-06	-9.175989768461768e-07	2.108867136061576e-07	5.654906694196938e-07	-4.9805723373416e-07	3.401855607920217e-07
1.53	-0.4507254175487756	-0.06839735980901145	0.7594684338779295	1.193120170985513	-0.4256925108583866	-0.2382068369967899	-0.2244947230697364	0.7045050119600258	0.704505011960017	-0.1486479528959709	-0.1417569588943524	0.01317933675119543	-0.06936881845030714	0.9960531135728689	0.4271179296245822	0.5881099075187413	-2.948075371302588	0.2262519776114685	-0.69147362588999	0.3378520610644155	-1.928145594224909	-1.928145594224942	-0.09030104601003014	0.1458815157820266	-0.1099189705819015	0.199619183290388	-0.203096849069933	0.02174219656482488	-0.003260440042696669	-0.1695474890755205	0.08342519148114931	0.04798870652026605	0.1844296101268161	-5.04698412082744	-22.15979301818429	5.712159604650614	-10.3055176440217	-503.8721655854463	-57.67534666465736	-29.53517519663057	0.744309702030996	0.854036207223098	-0.7546591853631084	-1.024794507465476	0.6032873854009049	0.02329082492157351	1.614386218083134	-0.7697745837232106	-0.7697745836961045	0.06358751431283098	0.1978498932601339	-0.2673875967556423	0.5120195181264978	2.297727149334291e-07	1.208214864096062e-06	-8.242924455830743e-07	2.33035238824781e-07	5.760697869570066e-07	-4.569532403975358e-07	3.355590555044539e-07
1.54	-0.4407299483484117	-0.06408412428746263	0.7653105349026971	1.163593421363385	-0.4233994326664755	-0.2451189529792653	-0.221035011916076	0.6851879257755221	0.6851879257754931	-0.1495464690332456	-0.1402874460077763	0.0120674207109502	-0.06734629523869815	1.002883525552021	0.435471251429624	0.5801879356333515	-2.956866989033434	0.232334208654915	-0.6908553943136915	0.3540644071169091	-1.935003502343479	-1.93500350234333	-0.08940351157954636	0.1480097571317622	-0.1124225509614399	0.2048723937980678	-0.1953158327355382	0.02089753125244315	-0.002953287760535081	-0.1673213847900082	0.08134056505758003	0.04668461463019753	0.1782949755571968	-5.44599169831398	-21.56832467723101	5.668992760399632	-9.799187252247744	-499.2907212092523	-58.01961578659146	-30.38616870249565	0.6076561561871475	0.8152031465435207	-0.8307973479287557	-0.7101913606361566	0.6271856447274006	0.1100374151039195	1.642660144506188	-0.5981321346687668	-0.5981321346687656	0.1420615641312918	0.2466251444869119	-0.2288455514780599	0.5560626731759514	2.060340314946203e-07	1.322323475331315e-06	-6.810185242766539e-07	2.752469630278026e-07	5.666855590426327e-07	-4.117211577138074e-07	3.273005237745068e-07
1.55	-0.4306708538179609	-0.05968921807167805	0.7710698064007719	1.133991148985162	-0.4210464487843876	-0.2520226728885576	-0.2174143511774713	0.6658106281382664	0.6658106281382402	-0.150435523997545	-0.138797582996964	0.01093181082244945	-0.06527160728104441	1.008767767011577	0.4434358071716136	0.5715489505420848	-2.963153391867767	0.2382259050780018	-0.6897895155619093	0.3700108470343487	-1.940173121557093	-1.940173121556966	-0.08841312196623724	0.1499511494104624	-0.1146615998211643	0.2100426995630075	-0.1874490030711044	0.02016064340008262	-0.002674437294317783	-0.1650844967669904	0.07931596901428645	0.04496561064607821	0.1720110901106277	-5.839090165051857	-20.80147333227807	5.602180698838398	-9.153196289716753	-494.7244836175703	-58.01416905438528	-31.22404360460299	0.5536538669764492	0.7760294783860588	-0.8979578439646373	-0.5227563042384282	0.5644470185069341	0.1199987276257156	1.562101879879386	-0.4340028714522883	-0.4340028714556825	0.0769604947347312	0.1659769253899638	-0.2157301769626938	0.4939376884395687	1.681589749361523e-07	1.465056513035718e-06	-4.801734796594572e-07	3.405749817128468e-07	5.343000852817514e-07	-3.617327981736332e-07	3.148572659261661e-07
1.56	-0.4205579477276748	-0.05521687676040205	0.7767391862970862	1.104339034266733	-0.4186356908625799	-0.2589127068858623	-0.2136359328467818	0.6463901090975427	0.646390109097485	-0.151314788498842	-0.1372886899321173	0.009774951320604106	-0.06314593163368393	1.013645837516581	0.4509582705279109	0.5622096152812889	-2.966835457078373	0.2438890165973929	-0.688118211913706	0.3856159255324451	-1.943647783040488	-1.943647783040383	-0.08744541896076494	0.1518157679222878	-0.1166724736306109	0.2150699317394114	-0.1795821734065556	0.01942375554771101	-0.002395586828563827	-0.1628476087439206	0.07729137297098558	0.04324660666194893	0.1657272046641869	-6.242830763332059	-20.03520404287307	5.538255136687777	-8.485811364215866	-490.2907763678935	-58.05127493276314	-32.04357891356091	0.4064219652767598	0.7267846694050502	-0.970867381834566	-0.1893238358906841	0.5814686639882996	0.2311223943880479	1.574387860637541	-0.2591405886251684	-0.2591405886251793	0.137524242563957	0.2312703911119549	-0.1832105414225124	0.5274479554688258	1.372648918778318e-07	1.590276790843178e-06	-3.134730578367603e-07	3.894285639135453e-07	5.149218371913427e-07	-3.17492748997135e-07	3.035461377251407e-07
1.57	-0.4104013259932582	-0.05067165393553328	0.7823117440005867	1.074663264643362	-0.4161694586730796	-0.2657835732360354	-0.2097035659197064	0.6269435185928939	0.6269435185928827	-0.1521841612598506	-0.1357619929623963	0.008599150454617089	-0.06097069164319837	1.017501798299526	0.4579976223293936	0.5521912400251283	-2.967858671849887	0.2493127526929653	-0.6859623657288693	0.4007646097203562	-1.945366554871403	-1.945366554871345	-0.08643134418855572	0.1535003574836522	-0.1184490473016198	0.2199477401307963	-0.1715845538290849	0.01821254901003371	-0.002168658559019391	-0.1607627686873758	0.07539284339514457	0.04157376861301749	0.1592743942493791	-6.612972089593887	-19.29494997482976	5.478570780003829	-7.784867548896974	-485.9147560808946	-58.17311597026513	-32.84007806851433	0.3486494419858274	0.6792964100995905	-1.033823405171601	0.01012775093504803	0.5158500855764618	0.2219775565009542	1.47118117353035	-0.08273861819150626	-0.08273861819862344	0.08334388187594885	0.1334360441128095	-0.1690458611330235	0.4631341485525378	1.150970256946959e-07	1.693606118779457e-06	-1.894534145071875e-07	4.176891005088119e-07	5.118026211890242e-07	-2.804380877752319e-07	2.936501715832592e-07
1.58	-0.4002114513895646	-0.04605868039773401	0.7877808177899924	1.044991052482036	-0.4136503843219721	-0.2726300487591801	-0.2056224976556129	0.6074888417423531	0.6074888417423976	-0.1530433943156514	-0.1342191735359846	0.007406750835681169	-0.05874763619528309	1.020296411369758	0.4645084131140126	0.5415128324624058	-2.966123964672731	0.2544574489179342	-0.6832400465052549	0.4153561929347606	-1.945265052216989	-1.945265052216978	-0.08541747792328849	0.1550402592635772	-0.1199922242203462	0.2246330232253498	-0.1635869342515249	0.01700134247232538	-0.001941730289364759	-0.1586779286308441	0.07349431381928481	0.03990093056404181	0.1528215838346855	-6.995217805217135	-18.55443536255059	5.420968514355711	-7.051025353477272	-481.688225363722	-58.33651451193469	-33.60876822691212	0.194152422734132	0.6210724660323153	-1.102873843146962	0.3622605538432285	0.5256606898675943	0.3444170021434597	1.462967665936207	0.1049143084405834	0.1049143084405778	0.1374825411756035	0.2023328348240996	-0.1365311909660263	0.488942896102566	9.975254536174601e-08	1.743607080603697e-06	-1.257464292174665e-07	4.28952764571434e-07	5.080142196943937e-07	-2.422427394461115e-07	2.840916599631641e-07
